

<svg version="1.0" xmlns="http://www.w3.org/2000/svg"
 width="300.000000pt" height="434.000000pt" viewBox="0 0 300.000000 434.000000"
 preserveAspectRatio="xMidYMid meet">

<path
          id="leaf1"
          class="leaf"
          stroke="red"
          d="M100 4165 c0 -4 15 -21 33 -40 41 -42 70 -99 115 -225 10 -30 25 -71
31 -90 18 -49 59 -258 77 -390 12 -87 39 -191 66 -257 32 -78 90 -140 165
-177 21 -10 46 -22 55 -27 23 -12 213 -12 236 0 9 5 30 15 46 22 42 20 132
104 151 141 20 41 19 64 -4 96 -10 15 -31 51 -45 80 -24 46 -35 57 -84 80 -48
22 -74 27 -169 30 -70 3 -113 0 -113 -6 0 -11 57 -22 123 -22 66 0 151 -26
188 -57 16 -14 43 -52 60 -85 29 -56 29 -60 14 -92 -24 -50 -88 -109 -152
-140 -51 -26 -64 -28 -144 -24 -93 4 -150 26 -224 85 -62 49 -110 183 -142
388 -9 61 -54 291 -64 330 -6 22 -13 51 -15 63 -3 13 -27 74 -54 135 -28 61
-48 113 -45 115 3 3 63 -2 133 -11 70 -10 152 -20 182 -23 393 -37 553 -73
669 -150 131 -87 202 -196 207 -315 3 -55 -2 -76 -25 -125 -33 -70 -80 -119
-139 -146 -40 -18 -82 -17 -82 1 0 5 -16 35 -36 67 l-36 59 6 130 c3 72 8 145
12 164 5 24 3 32 -5 27 -6 -4 -11 -20 -11 -35 0 -15 -5 -32 -12 -39 -7 -7 -12
-57 -12 -144 l-1 -133 32 -45 c18 -25 40 -60 48 -77 20 -43 25 -43 134 4 55
24 141 123 141 162 0 11 4 23 10 26 19 12 12 169 -10 221 -47 110 -150 208
-281 268 -77 35 -219 71 -314 80 -22 2 -65 7 -95 10 -30 4 -77 9 -105 11 -119
9 -246 26 -270 35 -15 6 -44 10 -66 10 -22 0 -47 4 -57 9 -45 23 -122 39 -122
26z"
        />
</svg>




<svg width="400" height="686" viewBox="0 0 400 686" fill="none" xmlns="http://www.w3.org/2000/svg">
<path d="M21 30C28.8948 30.5311 36.4609 31.757 44.1875 33.4375C45.2155 33.6547 46.2436 33.8719 47.3027 34.0957C51.5333 34.997 55.7368 35.9137 59.9062 37.0664C65.608 38.5139 71.4711 38.9356 77.3125 39.5C78.6004 39.6282 79.8882 39.7564 81.2151 39.8884C93.2743 41.0528 105.358 41.7264 117.46 42.2656C118.178 42.3006 118.896 42.3355 119.636 42.3716C121.58 42.4661 123.524 42.5518 125.469 42.637C129.174 43.0179 132.444 43.9145 136 45C138.453 45.3366 140.912 45.6262 143.375 45.875C150.796 46.701 157.911 48.2585 165.148 50.0625C168.264 50.8209 171.343 51.4527 174.5 52C179.281 52.9185 183.785 54.542 188 57C188.33 57.66 188.66 58.32 189 59C190.207 59.4641 190.207 59.4641 191.438 59.9375C194 61 194 61 196 64C197.648 64.7121 199.318 65.3743 201 66C202.591 66.9111 204.154 67.8703 205.688 68.875C206.838 69.6136 206.838 69.6136 208.012 70.3672C210.147 72.1207 210.803 73.5643 212 76C212.99 76.33 213.98 76.66 215 77C215 77.66 215 78.32 215 79C215.577 79.2475 216.155 79.495 216.75 79.75C219.399 81.2216 221.104 82.6297 223 85C223.25 87.75 223.25 87.75 223 90C223.598 90.2887 224.196 90.5775 224.812 90.875C229.566 93.3198 230.746 95.1204 232.438 99.957C233.102 102.369 233.233 104.511 233 107C233.66 107 234.32 107 235 107C237.061 117.418 237.214 127.423 237 138C236.34 138 235.68 138 235 138C234.783 139.207 234.783 139.207 234.562 140.438C234 143 234 143 233 144C232.632 146.328 232.298 148.662 232 151C231.34 151 230.68 151 230 151C229.841 151.664 229.683 152.328 229.52 153.012C228.017 158.699 226.693 162.18 222 166C221.072 166.846 220.144 167.691 219.188 168.562C210.838 175.371 201.575 177.383 191 177C190.67 175.35 190.34 173.7 190 172C189.34 172 188.68 172 188 172C186.661 170.366 185.403 168.665 184.188 166.938C181.375 162.917 181.375 162.917 178.434 158.992C172.077 150.833 172.616 141.4 172.375 131.5C172.336 130.201 172.298 128.901 172.258 127.562C172.164 124.375 172.078 121.188 172 118C171.691 118.949 171.381 119.897 171.062 120.875C170 124 170 124 169 126C168.77 128.371 168.589 130.747 168.438 133.125C168.354 134.406 168.27 135.688 168.184 137.008C168.123 137.995 168.062 138.983 168 140C166.68 140 165.36 140 164 140C161.704 136.555 161.46 134.062 161 130C160.01 129.67 159.02 129.34 158 129C158 128.34 158 127.68 158 127C157.413 126.742 156.827 126.484 156.223 126.219C153.827 124.905 152.311 123.478 150.438 121.5C148.325 119.279 146.584 117.723 144 116C143.312 113.375 143.312 113.375 143 111C142.34 111 141.68 111 141 111C137.77 106.861 136.265 103.061 135 98C134.67 97.34 134.34 96.68 134 96C133.845 93.7503 133.75 91.4963 133.684 89.2422C133.663 88.5791 133.642 87.9161 133.621 87.2329C133.555 85.1137 133.496 82.9944 133.438 80.875C133.394 79.4388 133.351 78.0026 133.307 76.5664C133.2 73.0444 133.098 69.5223 133 66C131.515 66.495 131.515 66.495 130 67C129.867 67.7709 129.734 68.5417 129.598 69.3359C129.421 70.3388 129.244 71.3417 129.062 72.375C128.888 73.3727 128.714 74.3705 128.535 75.3984C128 78 128 78 127 80C126.768 82.5462 126.581 85.074 126.438 87.625C126.373 88.6846 126.373 88.6846 126.307 89.7656C126.201 91.5102 126.1 93.2551 126 95C121.616 94.2853 119.27 93.0829 116 90C116 89.34 116 88.68 116 88C114.917 87.7216 114.917 87.7216 113.812 87.4375C110.4 85.6932 109.244 83.7806 107.309 80.5586C105.678 78.6163 104.461 78.3799 102 78C102 77.01 102 76.02 102 75C100.02 75 98.04 75 96 75C95.67 74.34 95.34 73.68 95 73C93.515 72.505 93.515 72.505 92 72C91.67 71.34 91.34 70.68 91 70C88.9754 69.3479 88.9754 69.3479 87 69C87 68.01 87 67.02 87 66C85.9069 66.0619 84.8138 66.1238 83.6875 66.1875C80 66 80 66 78.0625 64.625C77 63 77 63 77 61C75.35 60.67 73.7 60.34 72 60C72 59.34 72 58.68 72 58C70.4841 58.0619 70.4841 58.0619 68.9375 58.125C64.8192 57.9943 61.8817 57.2675 58 56C58.9314 59.133 59.6004 60.7003 62.25 62.6875C65.1222 64.0583 67.964 65.0512 71 66C72.6716 66.6541 74.3402 67.3165 76 68C76 68.66 76 69.32 76 70C77.32 70.33 78.64 70.66 80 71C80 71.66 80 72.32 80 73C80.8869 73.2475 81.7738 73.495 82.6875 73.75C86.1501 75.0566 88.3519 76.4298 91 79C91 79.99 91 80.98 91 82C91.9281 82.1238 92.8562 82.2475 93.8125 82.375C97 83 97 83 100 85C100.33 85.99 100.66 86.98 101 88C102.485 88.495 102.485 88.495 104 89C104 89.66 104 90.32 104 91C105.485 91.495 105.485 91.495 107 92C107 92.66 107 93.32 107 94C107.66 94 108.32 94 109 94C109 94.66 109 95.32 109 96C108.37 95.9895 107.74 95.9791 107.092 95.9683C104.207 95.9264 101.322 95.9006 98.4375 95.875C97.4469 95.8582 96.4562 95.8415 95.4355 95.8242C89.9153 95.7875 85.1313 95.8558 80 98C78.0568 99.9734 78.0568 99.9734 77 102C78.0996 101.988 79.1991 101.977 80.332 101.965C98.5447 101.824 117.033 102.731 131 116C131 116.66 131 117.32 131 118C131.743 118.186 132.485 118.371 133.25 118.562C137.156 120.604 137.96 123.132 140 127C140.66 127.33 141.32 127.66 142 128C142.124 128.804 142.248 129.609 142.375 130.438C142.684 131.706 142.684 131.706 143 133C144.332 133.669 145.666 134.335 147 135C151.593 139.333 155.698 143.655 157 150C155.604 150.027 154.208 150.047 152.812 150.062C152.035 150.074 151.258 150.086 150.457 150.098C148 150 148 150 145.824 149.504C142.328 148.88 138.902 148.838 135.363 148.832C134.643 148.829 133.922 148.825 133.179 148.822C131.664 148.817 130.149 148.815 128.634 148.815C126.31 148.812 123.986 148.794 121.662 148.775C120.188 148.772 118.713 148.77 117.238 148.77C116.542 148.762 115.847 148.755 115.13 148.748C111.118 148.657 111.118 148.657 108 151C105.845 151.227 105.845 151.227 103.211 151.195C102.27 151.189 101.329 151.182 100.359 151.176C99.3745 151.159 98.3897 151.142 97.375 151.125C96.3824 151.116 95.3898 151.107 94.3672 151.098C91.9112 151.074 89.4557 151.041 87 151C87 151.99 87 152.98 87 154C88.0378 154.009 88.0378 154.009 89.0966 154.018C95.6571 154.076 102.217 154.148 108.778 154.236C112.149 154.28 115.521 154.32 118.893 154.346C122.78 154.38 126.667 154.433 130.555 154.488C132.347 154.498 132.347 154.498 134.176 154.508C141.262 154.631 147.346 155.523 154 158C154 158.66 154 159.32 154 160C154.66 159.897 155.32 159.794 156 159.688C161.925 160.305 167.225 164.526 171 169C172.058 170.631 173.053 172.303 174 174C174.701 175.072 175.402 176.145 176.125 177.25C178.474 181.312 178.79 185.38 179 190C179.66 190 180.32 190 181 190C181.668 197.947 181.023 203.628 176 210C173.473 212.527 170.775 214.754 168 217C166.824 218.207 166.824 218.207 165.625 219.438C164 221 164 221 162 221C161.67 221.99 161.34 222.98 161 224C158.516 225.667 155.719 226.763 153 228C152.292 228.366 151.585 228.732 150.855 229.109C144.941 232.051 139.563 232.794 133 233C132.198 233.028 131.396 233.057 130.57 233.086C128.041 233.127 125.528 233.076 123 233C121.324 232.975 121.324 232.975 119.613 232.949C111.512 232.643 105.885 231.224 99 227C98.1338 226.509 97.2675 226.018 96.375 225.512C91.5326 222.723 87.0635 219.85 83 216C83 215.34 83 214.68 83 214C82.2575 213.917 81.515 213.835 80.75 213.75C77.2942 212.808 76.1837 211.839 74 209C73.1315 207.032 72.4135 205.054 71.7266 203.016C70.9689 200.757 70.9689 200.757 69.3125 197.875C67.8518 194.675 67.7517 192.476 68 189C67.34 189 66.68 189 66 189C63.4948 182.617 62.5506 176.957 62.4375 170.125C62.403 168.461 62.3604 166.797 62.3086 165.133C62.2963 164.41 62.2839 163.687 62.2712 162.942C62.0981 160.677 62.0981 160.677 60 158C59.5881 155.217 59.2567 152.485 59 149.688C58.4744 143.833 58.4744 143.833 57.0508 138.152C55.4974 133.492 54.9251 128.722 54.1875 123.875C52.8932 115.746 51.3806 107.735 49.375 99.75C49.066 98.5103 49.066 98.5103 48.7507 97.2456C47.6672 93.0083 47.6672 93.0083 45.9868 88.9854C44.7453 86.4875 44.2043 83.9094 43.5625 81.207C42.5918 77.3983 41.3 73.7068 40 70C39.7396 69.2369 39.4792 68.4737 39.2109 67.6875C38.047 63.6034 38.047 63.6034 35 61C34.375 57.9375 34.375 57.9375 34 55C33.01 54.67 32.02 54.34 31 54C29.7539 51.2344 29.7539 51.2344 28.5625 47.75C26.9442 43.0287 25.1657 39.8342 22 36C21.25 32.6875 21.25 32.6875 21 30Z" fill="#203552"/>
<path d="M176 167C178.468 168.152 180.048 169.048 182 171C182 172.32 182 173.64 182 175C182.66 175 183.32 175 184 175C184 176.32 184 177.64 184 179C184.617 179.085 185.235 179.17 185.871 179.258C188 180 188 180 189.16 181.742C189.458 182.446 189.756 183.15 190.062 183.875C191.043 186.155 191.75 187.756 193.535 189.496C195.314 191.323 195.708 192.742 196.375 195.188C197.39 198.517 198.582 201.079 200.562 203.938C203.507 208.328 204.29 212.826 205 218C205.66 218 206.32 218 207 218C208.355 220.657 209.685 223.323 211 226C211.517 227.049 212.034 228.099 212.566 229.18C213.101 230.296 213.636 231.412 214.188 232.562C214.697 233.616 215.206 234.669 215.73 235.754C217 239 217 239 217.488 242.527C218.04 246.272 219.205 248.691 221 252C224.24 259.404 226.549 266.39 227.445 274.441C228.074 277.339 229.2 278.688 231 281C231.66 283.219 231.66 283.219 232.062 285.5C232.493 287.897 232.908 289.816 234 292C235.097 294.194 235.515 296.087 235.938 298.5C236.698 302.526 237.547 306.515 238.5 310.5C238.737 311.5 238.974 312.501 239.219 313.531C239.837 316.144 239.837 316.144 242 318C242.562 320.137 242.562 320.137 243 322.688C243.552 325.7 244.157 328.549 245 331.5C245.776 334.216 246.395 336.833 246.934 339.598C247.614 343.058 248.311 346.513 249.035 349.965C250.675 357.868 252.202 365.581 252.727 373.648C253.114 376.98 254.186 379.989 255.234 383.164C256.805 388.982 257.323 395.024 258 401C259.32 400.67 260.64 400.34 262 400C262.098 399.322 262.196 398.644 262.297 397.945C263.092 392.998 264.05 388.54 266.062 383.938C268.195 378.999 268.773 374.343 269 369C269.99 368.67 270.98 368.34 272 368C272.622 366.149 272.622 366.149 273 364C273.599 362.613 274.226 361.239 274.875 359.875C276.777 355.727 278.063 351.581 279.191 347.164C280.097 344.74 281.159 343.776 283 342C283.867 340.446 284.676 338.858 285.438 337.25C290.851 326.114 290.851 326.114 293.402 323.641C295.465 321.523 296.879 319.197 298.438 316.688C299.051 315.713 299.665 314.738 300.297 313.734C301.274 312.166 302.245 310.595 303.203 309.016C305.093 305.986 306.588 304.219 310 303C310.125 306.375 310.125 306.375 310 310C309.34 310.66 308.68 311.32 308 312C307.357 314.069 307.357 314.069 307 316C306.01 316 305.02 316 304 316C304.062 317.134 304.124 318.269 304.188 319.438C304.188 326.556 301.331 332.814 298 339C297.34 339 296.68 339 296 339C295.841 339.678 295.683 340.356 295.52 341.055C294.018 347.043 292.026 352.139 289.133 357.578C287.692 360.658 287.018 363.653 286.457 366.992C285.95 369.221 285.022 370.963 284 373C283.655 375.332 283.322 377.665 283 380C282.357 382.008 281.688 384.007 281 386C279.997 389.13 279.026 392.266 278.082 395.414C277.383 397.731 276.653 400.04 275.887 402.336C272.783 412.381 272.4 422.039 272.176 432.496C272.101 435.751 271.945 438.923 271.508 442.148C270.934 446.502 270.738 450.804 270.562 455.188C270.312 460.694 269.943 466.06 269 471.5C267.973 477.474 267.65 483.367 267.405 489.412C267.235 493.29 267.028 497.133 266.522 500.983C264.372 517.426 264.695 533.978 264.739 550.528C264.751 554.886 264.744 559.245 264.732 563.603C264.725 567.017 264.727 570.43 264.732 573.843C264.734 575.448 264.732 577.054 264.727 578.66C264.706 588.021 265.189 597.07 266.529 606.341C267.032 610.245 267.261 614.068 267.438 618C268.305 633.943 271.529 651.307 279.047 665.438C280.265 668.712 280.153 671.537 280 675C264.575 675.451 249.621 674.217 234.31 672.389C229.461 671.819 224.606 671.314 219.75 670.812C218.224 670.653 216.698 670.492 215.172 670.332C213.602 670.168 213.602 670.168 212 670C210.707 664.881 212.024 661.732 214 657C217.28 648.523 219.781 640.59 220.438 631.5C220.706 628.019 221.182 625.128 222.438 621.875C223.938 617.782 224.547 613.709 225.031 609.398C225.116 608.659 225.201 607.919 225.288 607.157C226.245 598.376 226.656 589.57 227.062 580.75C227.179 578.276 227.297 575.803 227.419 573.329C227.494 571.81 227.566 570.291 227.633 568.772C227.813 565.092 228.155 561.589 229 558C229.66 558 230.32 558 231 558C230.995 557.34 230.99 556.681 230.984 556.001C230.894 542.588 230.979 529.207 231.422 515.801C232.053 496.281 232.188 476.768 232.185 457.239C232.185 452.722 232.199 448.205 232.216 443.688C232.227 440.12 232.229 436.552 232.229 432.985C232.23 431.32 232.234 429.654 232.242 427.989C232.286 417.875 231.735 408.035 230.456 397.999C229.707 391.936 229.707 385.852 229.625 379.75C229.369 368.967 228.549 358.433 227.125 347.75C226.963 346.52 226.802 345.29 226.635 344.022C225.891 338.78 225.033 333.778 223.402 328.734C221.858 323.956 221.526 319.498 221.438 314.5C221.676 308.734 221.676 308.734 219 304C218.855 301.255 218.813 298.615 218.875 295.875C218.884 295.121 218.893 294.367 218.902 293.59C218.926 291.726 218.962 289.863 219 288C218.01 287.67 217.02 287.34 216 287C215.89 285.975 215.781 284.95 215.668 283.895C215.508 282.534 215.348 281.173 215.188 279.812C215.117 279.139 215.047 278.465 214.975 277.771C214.447 273.441 213.377 270.615 211 267C210.121 264.57 210.121 264.57 209.438 262.125C209.19 261.256 208.942 260.387 208.688 259.492C208.347 258.259 208.347 258.259 208 257C206.597 252.032 206.597 252.032 205 247.125C204.212 244.663 203.673 242.398 203.188 239.875C202.381 236.034 201.073 232.656 199.5 229.062C197.437 224.343 196.196 219.953 195.457 214.863C195.306 214.248 195.155 213.634 195 213C194.34 212.67 193.68 212.34 193 212C191.163 207.811 189.917 204.245 189.562 199.688C189.377 198.471 189.191 197.254 189 196C188.361 195.541 187.721 195.082 187.062 194.609C184.352 192.494 184.153 190.881 183.438 187.562C182.565 183.578 181.563 181.164 179 178C177.053 173.961 176 171.518 176 167Z" fill="#203452"/>
</svg>
