

<svg version="1.0" xmlns="http://www.w3.org/2000/svg"
 width="300.000000pt" height="434.000000pt" viewBox="0 0 300.000000 434.000000"
 preserveAspectRatio="xMidYMid meet">

<path
          id="leaf1"
          class="leaf"
          stroke="red"
          d="M100 4165 c0 -4 15 -21 33 -40 41 -42 70 -99 115 -225 10 -30 25 -71
31 -90 18 -49 59 -258 77 -390 12 -87 39 -191 66 -257 32 -78 90 -140 165
-177 21 -10 46 -22 55 -27 23 -12 213 -12 236 0 9 5 30 15 46 22 42 20 132
104 151 141 20 41 19 64 -4 96 -10 15 -31 51 -45 80 -24 46 -35 57 -84 80 -48
22 -74 27 -169 30 -70 3 -113 0 -113 -6 0 -11 57 -22 123 -22 66 0 151 -26
188 -57 16 -14 43 -52 60 -85 29 -56 29 -60 14 -92 -24 -50 -88 -109 -152
-140 -51 -26 -64 -28 -144 -24 -93 4 -150 26 -224 85 -62 49 -110 183 -142
388 -9 61 -54 291 -64 330 -6 22 -13 51 -15 63 -3 13 -27 74 -54 135 -28 61
-48 113 -45 115 3 3 63 -2 133 -11 70 -10 152 -20 182 -23 393 -37 553 -73
669 -150 131 -87 202 -196 207 -315 3 -55 -2 -76 -25 -125 -33 -70 -80 -119
-139 -146 -40 -18 -82 -17 -82 1 0 5 -16 35 -36 67 l-36 59 6 130 c3 72 8 145
12 164 5 24 3 32 -5 27 -6 -4 -11 -20 -11 -35 0 -15 -5 -32 -12 -39 -7 -7 -12
-57 -12 -144 l-1 -133 32 -45 c18 -25 40 -60 48 -77 20 -43 25 -43 134 4 55
24 141 123 141 162 0 11 4 23 10 26 19 12 12 169 -10 221 -47 110 -150 208
-281 268 -77 35 -219 71 -314 80 -22 2 -65 7 -95 10 -30 4 -77 9 -105 11 -119
9 -246 26 -270 35 -15 6 -44 10 -66 10 -22 0 -47 4 -57 9 -45 23 -122 39 -122
26z"
        />


</svg>